# xmcd
#
# Track frame offsets:
# 150
# 11814
# 28021
# 46376
# 67978
# 84955
# 101107
# 122976
# 140511
# 160293
# 174257
# 190697
# 206574
# 226156
# 244552
# 266293
#
# Disc length: 3968 seconds
#
#
# Revision: 0
# Processed by: cddbd v1.5.1PL0 Copyright (c) Steve Scherf et al.
# Submitted via: FreeRIP 2.12 
#
DISCID=ce0f7e10
DTITLE=Wilie Nelson - The Best
DYEAR=1900
DGENRE=Country
TTITLE0=On The Road Again
TTITLE1=To All The Girls I've Loved Before
TTITLE2=A Whiter Shade Of Pale
TTITLE3=They All Went To Mexico
TTITLE4=Golden Earings
TTITLE5=Always On My Mind
TTITLE6=City Of New Orleans
TTITLE7=Seven Spanish Angels
TTITLE8=Georgia On My Mind
TTITLE9=Highway Man
TTITLE10=Over The Rainbow
TTITLE11=Let It Be Me
TTITLE12=I'm Allright
TTITLE13=There Is Hope For Us
TTITLE14=Memories
TTITLE15=Don't Give Up
EXTD=
EXTT0=
EXTT1=
EXTT2=
EXTT3=
EXTT4=
EXTT5=
EXTT6=
EXTT7=
EXTT8=
EXTT9=
EXTT10=
EXTT11=
EXTT12=
EXTT13=
EXTT14=
EXTT15=
PLAYORDER=
